<svg id="Group_1538" data-name="Group 1538" xmlns="http://www.w3.org/2000/svg" xmlns:xlink="http://www.w3.org/1999/xlink" width="93.787" height="89.108" viewBox="0 0 93.787 89.108">
  <defs>
    <clipPath id="clip-path">
      <path id="SVGID" d="M432.082,49.784q9.6,5.581,19.2,11.165c-2.314-1.351-5.3-1.551-8.644-.429L423.427,49.353C426.766,48.229,429.747,48.433,432.082,49.784Z" transform="translate(-423.427 -48.625)" fill="#fff"/>
    </clipPath>
    <clipPath id="clip-path-2">
      <path id="SVGID-2" data-name="SVGID" d="M420.77,42.5l19.216,11.167c-3.475-2.024-8.289-1.734-13.6,1.335L407.174,43.836C412.487,40.769,417.3,40.477,420.77,42.5Z" transform="translate(-407.174 -41.21)" fill="#fff"/>
    </clipPath>
    <clipPath id="clip-path-3">
      <path id="SVGID-3" data-name="SVGID" d="M399.905,96.841,380.691,85.674a27.242,27.242,0,0,1,3.552-10.317,25.665,25.665,0,0,1,8.8-9.333l19.211,11.167a25.764,25.764,0,0,0-8.8,9.329A27.191,27.191,0,0,0,399.905,96.841Z" transform="translate(-380.691 -66.025)" fill="#fff"/>
    </clipPath>
    <clipPath id="clip-path-4">
      <path id="SVGID-4" data-name="SVGID" d="M410.606,80.657,391.395,69.49c2.387-10.348,9.628-21.052,18.2-26L428.814,54.65C420.238,59.6,412.993,70.307,410.606,80.657Z" transform="translate(-391.395 -43.486)" fill="#fff"/>
    </clipPath>
    <clipPath id="clip-path-5">
      <path id="SVGID-5" data-name="SVGID" d="M393.429,123.048l-19.215-11.16c-2.215-1.291-3.593-4.03-3.6-7.919-.018-7.588,5.133-16.745,11.628-20.913l19.214,11.167c-6.5,4.166-11.654,13.325-11.633,20.907C389.836,119.026,391.207,121.759,393.429,123.048Z" transform="translate(-370.612 -83.056)" fill="#fff"/>
    </clipPath>
  </defs>
  <g id="Group_1500" data-name="Group 1500" transform="translate(60.935 8.555)" style="isolation: isolate">
    <path id="SVGID-6" data-name="SVGID" d="M432.082,49.784q9.6,5.581,19.2,11.165c-2.314-1.351-5.3-1.551-8.644-.429L423.427,49.353C426.766,48.229,429.747,48.433,432.082,49.784Z" transform="translate(-423.427 -48.625)" fill="#fff"/>
    <g id="Group_1499" data-name="Group 1499" clip-path="url(#clip-path)">
      <g id="Group_1498" data-name="Group 1498" style="isolation: isolate">
        <path id="Path_118" data-name="Path 118" d="M442.64,60.52,423.427,49.353c3.339-1.124,6.32-.92,8.655.431l19.2,11.165c-2.314-1.351-5.3-1.551-8.644-.429Z" transform="translate(-423.427 -48.625)" fill="#fff"/>
      </g>
    </g>
  </g>
  <g id="Group_1503" data-name="Group 1503" transform="translate(42.183 0)" style="isolation: isolate">
    <path id="SVGID-7" data-name="SVGID" d="M420.77,42.5l19.216,11.167c-3.475-2.024-8.289-1.734-13.6,1.335L407.174,43.836C412.487,40.769,417.3,40.477,420.77,42.5Z" transform="translate(-407.174 -41.21)" fill="#fff"/>
    <g id="Group_1502" data-name="Group 1502" clip-path="url(#clip-path-2)">
      <g id="Group_1501" data-name="Group 1501" style="isolation: isolate">
        <path id="Path_119" data-name="Path 119" d="M426.388,55,407.174,43.836c5.313-3.067,10.122-3.359,13.6-1.338l19.216,11.167c-3.475-2.024-8.289-1.734-13.6,1.335Z" transform="translate(-407.174 -41.21)" fill="#fff"/>
      </g>
    </g>
  </g>
  <g id="Group_1506" data-name="Group 1506" transform="translate(11.629 28.63)" style="isolation: isolate">
    <path id="SVGID-8" data-name="SVGID" d="M399.905,96.841,380.691,85.674a27.242,27.242,0,0,1,3.552-10.317,25.665,25.665,0,0,1,8.8-9.333l19.211,11.167a25.764,25.764,0,0,0-8.8,9.329A27.191,27.191,0,0,0,399.905,96.841Z" transform="translate(-380.691 -66.025)" fill="#fff"/>
    <g id="Group_1505" data-name="Group 1505" clip-path="url(#clip-path-3)">
      <g id="Group_1504" data-name="Group 1504" style="isolation: isolate">
        <path id="Path_120" data-name="Path 120" d="M399.905,96.841,380.691,85.674a27.242,27.242,0,0,1,3.552-10.317,25.665,25.665,0,0,1,8.8-9.333l19.211,11.167a25.764,25.764,0,0,0-8.8,9.329,27.191,27.191,0,0,0-3.545,10.32Z" transform="translate(-380.691 -66.025)" fill="#fff"/>
      </g>
    </g>
  </g>
  <g id="Group_1509" data-name="Group 1509" transform="translate(23.978 2.626)" style="isolation: isolate">
    <path id="SVGID-9" data-name="SVGID" d="M410.606,80.657,391.395,69.49c2.387-10.348,9.628-21.052,18.2-26L428.814,54.65C420.238,59.6,412.993,70.307,410.606,80.657Z" transform="translate(-391.395 -43.486)" fill="#fff"/>
    <g id="Group_1508" data-name="Group 1508" clip-path="url(#clip-path-4)">
      <g id="Group_1507" data-name="Group 1507" style="isolation: isolate">
        <path id="Path_121" data-name="Path 121" d="M410.606,80.657,391.395,69.49c2.387-10.348,9.628-21.052,18.2-26L428.814,54.65c-8.576,4.951-15.821,15.657-18.208,26.008Z" transform="translate(-391.395 -43.486)" fill="#fff"/>
      </g>
    </g>
  </g>
  <g id="Group_1512" data-name="Group 1512" transform="translate(0 48.279)" style="isolation: isolate">
    <path id="SVGID-10" data-name="SVGID" d="M393.429,123.048l-19.215-11.16c-2.215-1.291-3.593-4.03-3.6-7.919-.018-7.588,5.133-16.745,11.628-20.913l19.214,11.167c-6.5,4.166-11.654,13.325-11.633,20.907C389.836,119.026,391.207,121.759,393.429,123.048Z" transform="translate(-370.612 -83.056)" fill="#fff"/>
    <g id="Group_1511" data-name="Group 1511" clip-path="url(#clip-path-5)">
      <g id="Group_1510" data-name="Group 1510" style="isolation: isolate">
        <path id="Path_122" data-name="Path 122" d="M393.429,123.048l-19.215-11.16c-2.215-1.291-3.593-4.03-3.6-7.919-.018-7.588,5.133-16.745,11.628-20.913l19.214,11.167c-6.5,4.166-11.654,13.325-11.633,20.907.014,3.9,1.386,6.629,3.608,7.918Z" transform="translate(-370.612 -83.056)" fill="#fff"/>
      </g>
    </g>
  </g>
  <g id="Group_1513" data-name="Group 1513" transform="translate(19.21 11.167)">
    <path id="Path_123" data-name="Path 123" d="M429.45,53.511c9.211-5.315,16.923-2.28,18.75,6.661,7.761-2.606,13.614,1.928,13.64,11.4.031,10.839-7.6,24.063-17.053,29.517l-45.115,26.047c-6.823,3.938-12.384.79-12.41-7.059-.021-7.582,5.134-16.741,11.633-20.907a27.191,27.191,0,0,1,3.545-10.32,25.764,25.764,0,0,1,8.8-9.329C413.628,69.169,420.874,58.462,429.45,53.511Z" transform="translate(-387.262 -50.889)" fill="#d6ebed"/>
  </g>
</svg>
