<svg xmlns="http://www.w3.org/2000/svg" width="14" height="14" viewBox="0 0 14 14">
  <path id="_" data-name="" d="M181.106,3503.07l-4.463,0a.4.4,0,0,0-.394.394v.913h0a.393.393,0,0,0,.394.392h.008l2.013-.075.056.059-7.625,7.625a.322.322,0,0,0-.1.231.332.332,0,0,0,.1.233l.63.628a.324.324,0,0,0,.465,0l7.625-7.625.056.056-.074,2.014v.01a.393.393,0,0,0,.394.392h.91a.393.393,0,0,0,.394-.392l0-4.464a.394.394,0,0,0-.394-.394Zm-1.794,7.875h-.437a.438.438,0,0,0-.437.438v4.212a.165.165,0,0,1-.163.164h-9.3a.165.165,0,0,1-.163-.163v-9.3a.163.163,0,0,1,.163-.164h4.211a.438.438,0,0,0,.438-.438v-.437a.438.438,0,0,0-.437-.439h-4.375a1.313,1.313,0,0,0-1.312,1.313v9.625a1.313,1.313,0,0,0,1.313,1.312h9.625a1.313,1.313,0,0,0,1.313-1.311v-4.375A.438.438,0,0,0,179.313,3510.945Z" transform="translate(-167.5 -3503.069)" fill="#343434" fill-rule="evenodd"/>
</svg>
