<svg xmlns="http://www.w3.org/2000/svg" width="12" height="12" viewBox="0 0 12 12">
  <path id="_" data-name="" d="M179.162,3503.07l-3.825,0a.338.338,0,0,0-.337.338v.782h0a.337.337,0,0,0,.337.336h.007l1.726-.064.048.05-6.536,6.536a.276.276,0,0,0-.083.2.285.285,0,0,0,.083.2l.54.538a.278.278,0,0,0,.4,0l6.536-6.536.048.048-.064,1.726v.008a.337.337,0,0,0,.337.336h.78a.337.337,0,0,0,.338-.336l0-3.826a.338.338,0,0,0-.338-.338Zm-1.537,6.75h-.375a.375.375,0,0,0-.375.376v3.61a.142.142,0,0,1-.14.14h-7.969a.141.141,0,0,1-.14-.14v-7.97a.14.14,0,0,1,.14-.14h3.609a.375.375,0,0,0,.375-.376v-.374a.375.375,0,0,0-.375-.376h-3.75a1.125,1.125,0,0,0-1.125,1.126v8.25a1.125,1.125,0,0,0,1.125,1.124h8.25a1.125,1.125,0,0,0,1.125-1.124v-3.75A.375.375,0,0,0,177.625,3509.82Z" transform="translate(-167.5 -3503.07)" fill="#507279" fill-rule="evenodd"/>
</svg>
