<svg xmlns="http://www.w3.org/2000/svg" width="14" height="14.01" viewBox="0 0 14 14.01">
  <path id="_" data-name="" d="M562.3,4203.369a.328.328,0,0,0-.328-.326h-1.856v-1.856a.329.329,0,0,0-.328-.329h-.655a.329.329,0,0,0-.328.329v1.856h-1.857a.328.328,0,0,0-.328.326v.657a.328.328,0,0,0,.328.326h1.857v1.857a.33.33,0,0,0,.328.329h.655a.33.33,0,0,0,.328-.329v-1.857h1.856a.328.328,0,0,0,.328-.326Zm5.365,7.917a.33.33,0,0,0,0-.466l-3.315-3.313a.333.333,0,0,0-.233-.1h-.359a5.694,5.694,0,1,0-.584.583v.361a.323.323,0,0,0,.1.232l3.314,3.313a.329.329,0,0,0,.464,0Zm-3.836-7.588a4.368,4.368,0,1,1-4.368-4.369A4.369,4.369,0,0,1,563.831,4203.7Z" transform="translate(-553.763 -4197.987)" fill="#ccc" fill-rule="evenodd"/>
</svg>
