<svg id="icon-expand.svg" xmlns="http://www.w3.org/2000/svg" width="60.031" height="60" viewBox="0 0 60.031 60">
  <defs>
    <style>
      .cls-1 {
        fill: #7bbdd1;
        fill-rule: evenodd;
      }
    </style>
  </defs>
  <path id="_" data-name="" class="cls-1" d="M590.413,3985.09a1.408,1.408,0,0,0-1.407-1.4h-7.969v-7.97a1.409,1.409,0,0,0-1.405-1.41h-2.813a1.41,1.41,0,0,0-1.407,1.41v7.97h-7.968a1.407,1.407,0,0,0-1.406,1.4v2.82a1.407,1.407,0,0,0,1.406,1.4h7.968v7.97a1.416,1.416,0,0,0,1.407,1.41h2.813a1.415,1.415,0,0,0,1.405-1.41v-7.97h7.969a1.408,1.408,0,0,0,1.407-1.4v-2.82Zm23.027,33.98a1.417,1.417,0,0,0,0-2l-14.227-14.22a1.43,1.43,0,0,0-1-.41H596.67a24.453,24.453,0,1,0-2.508,2.5v1.55a1.391,1.391,0,0,0,.411,1l14.226,14.22a1.409,1.409,0,0,0,1.992,0Zm-16.465-32.57a18.75,18.75,0,1,1-18.75-18.75A18.745,18.745,0,0,1,596.975,3986.5Z" transform="translate(-553.844 -3962.12)"/>
</svg>
