<svg id="menu.svg" xmlns="http://www.w3.org/2000/svg" width="100" height="100" viewBox="0 0 100 100">
  <defs>
    <style>
      .cls-1 {
        fill: #fff;
      }

      .cls-2 {
        fill: #ecbeb4;
        fill-rule: evenodd;
      }
    </style>
  </defs>
  <circle id="楕円形_1" data-name="楕円形 1" class="cls-1" cx="50" cy="50" r="50"/>
  <path id="長方形_1_のコピー_2" data-name="長方形 1 のコピー 2" class="cls-2" d="M668,1539h44a3,3,0,0,1,0,6H668A3,3,0,0,1,668,1539Zm0,16h44a3,3,0,0,1,0,6H668A3,3,0,0,1,668,1555Zm0,16h44a3,3,0,0,1,0,6H668A3,3,0,0,1,668,1571Z" transform="translate(-640 -1508)"/>
</svg>
