<svg id="no-txt03.svg" xmlns="http://www.w3.org/2000/svg" width="218.282" height="125.65" viewBox="0 0 218.282 125.65">
  <defs>
    <style>
      .cls-1 {
        fill: #7bbdd1;
        fill-rule: evenodd;
      }
    </style>
  </defs>
  <path id="_03" data-name="03" class="cls-1" d="M100.405,3594.11a62.816,62.816,0,1,0,0-125.63c-34.85,0-63.239,27.88-63.239,62.73A63.048,63.048,0,0,0,100.405,3594.11Zm0-20.06c-22.95,0-41.99-18.53-41.99-42.84s19.04-42.67,41.99-42.67c23.289,0,41.989,18.36,41.989,42.67S123.694,3574.05,100.405,3574.05Zm113.049,20.06a42.008,42.008,0,0,0,41.99-42.16c-0.171-18.7-13.091-35.36-31.28-38.08l-1.19-.17v-0.51l28.219-42.16H181.664v19.89h34.85l-26.52,40.46h21.25c13.6,0,22.95,7.99,22.95,21.08,0,12.24-7.99,21.59-20.57,21.76-12.75,0-20.91-9.35-20.91-22.1h-21.25A42.08,42.08,0,0,0,213.454,3594.11Z" transform="translate(-37.156 -3468.47)"/>
</svg>
