<svg xmlns="http://www.w3.org/2000/svg" width="150.633" height="88" viewBox="0 0 150.633 88">
  <path id="_02" data-name="02" d="M81.632,3376.479a44,44,0,1,0-44.3-44.059,44,44,0,0,0,44.3,44.059Zm0-14.052c-16.076,0-29.412-12.979-29.412-30.008a29.43,29.43,0,0,1,29.412-29.889c16.313,0,29.412,12.861,29.412,29.889S97.945,3362.427,81.632,3362.427Zm51.679,12.265h54.537v-14.051H153.555v-.476l22.982-21.792c7.145-6.549,11.431-14.527,11.431-24.173,0-13.694-10-25.721-26.673-25.721-17.147,0-27.626,12.027-27.626,26.912h14.766c0-7.383,4.763-12.86,12.146-12.86,7.5,0,12.384,5.478,12.384,12.027,0,5.358-2.739,9.288-6.907,13.337l-32.747,31.317Z" transform="translate(-37.335 -3288.479)" fill="#fff" fill-rule="evenodd"/>
</svg>
