<svg id="no-txt02.svg" xmlns="http://www.w3.org/2000/svg" width="215.031" height="125.65" viewBox="0 0 215.031 125.65">
  <defs>
    <style>
      .cls-1 {
        fill: #7bbdd1;
        fill-rule: evenodd;
      }
    </style>
  </defs>
  <path id="_02" data-name="02" class="cls-1" d="M100.574,3414.11a62.816,62.816,0,1,0,0-125.63c-34.849,0-63.239,27.88-63.239,62.73A63.048,63.048,0,0,0,100.574,3414.11Zm0-20.06c-22.949,0-41.989-18.53-41.989-42.84s19.04-42.67,41.989-42.67c23.29,0,41.99,18.36,41.99,42.67S123.864,3394.05,100.574,3394.05Zm73.78,17.51h77.86V3391.5h-48.96v-0.68l32.809-31.11c10.2-9.35,16.32-20.74,16.32-34.51,0-19.55-14.279-36.72-38.079-36.72-24.48,0-39.44,17.17-39.44,38.42h21.08c0-10.54,6.8-18.36,17.34-18.36,10.71,0,17.679,7.82,17.679,17.17,0,7.65-3.91,13.26-9.859,19.04l-46.75,44.71v22.1Z" transform="translate(-37.344 -3288.47)"/>
</svg>
