<svg id="no-txt02.svg" xmlns="http://www.w3.org/2000/svg" width="215.031" height="125.65" viewBox="0 0 215.031 125.65">
  <defs>
    <style>
      .cls-1 {
        fill: #7bbdd1;
        fill-rule: evenodd;
      }
    </style>
  </defs>
  <path id="_02" data-name="02" class="cls-1" d="M100.575,3414.11a62.816,62.816,0,1,0,0-125.63c-34.85,0-63.24,27.88-63.24,62.73A63.048,63.048,0,0,0,100.575,3414.11Zm0-20.06c-22.95,0-41.99-18.53-41.99-42.84s19.04-42.67,41.99-42.67c23.289,0,41.989,18.36,41.989,42.67S123.864,3394.05,100.575,3394.05Zm73.779,17.51h77.859V3391.5H203.254v-0.68l32.81-31.11c10.2-9.35,16.319-20.74,16.319-34.51,0-19.55-14.28-36.72-38.079-36.72-24.48,0-39.44,17.17-39.44,38.42h21.08c0-10.54,6.8-18.36,17.34-18.36,10.71,0,17.68,7.82,17.68,17.17,0,7.65-3.91,13.26-9.86,19.04l-46.75,44.71v22.1Z" transform="translate(-37.344 -3288.47)"/>
</svg>
