<svg id="no-txt00.svg" xmlns="http://www.w3.org/2000/svg" width="560.094" height="84.84" viewBox="0 0 560.094 84.84">
  <defs>
    <style>
      .cls-1 {
        fill: #7bbdd1;
        fill-rule: evenodd;
      }
    </style>
  </defs>
  <path id="Overview" class="cls-1" d="M57.54,2971.35a38.512,38.512,0,0,0,9.063,13.4,40.067,40.067,0,0,0,13.794,8.49,49.623,49.623,0,0,0,17.442,2.96,49.642,49.642,0,0,0,17.442-2.96,40.09,40.09,0,0,0,13.794-8.49,38.518,38.518,0,0,0,9.062-13.4,49.051,49.051,0,0,0,0-35.11,38.61,38.61,0,0,0-9.062-13.4,40.09,40.09,0,0,0-13.794-8.49,49.87,49.87,0,0,0-17.442-2.96,49.851,49.851,0,0,0-17.442,2.96,40.067,40.067,0,0,0-13.794,8.49,38.6,38.6,0,0,0-9.063,13.4A49.054,49.054,0,0,0,57.54,2971.35Zm16.986-27.93a23.77,23.77,0,0,1,5.073-8.26,23.244,23.244,0,0,1,7.923-5.42,28.4,28.4,0,0,1,20.633,0,23.26,23.26,0,0,1,7.923,5.42,23.815,23.815,0,0,1,5.073,8.26,31.5,31.5,0,0,1,0,20.81,23.835,23.835,0,0,1-5.073,8.2,23.121,23.121,0,0,1-7.923,5.42,28.4,28.4,0,0,1-20.633,0,23.1,23.1,0,0,1-7.923-5.42,23.789,23.789,0,0,1-5.073-8.2A31.517,31.517,0,0,1,74.527,2943.42Zm99.577,50.73H192.23l21.888-55.4H196.9l-13,37.62H183.68l-14.022-37.62H151.19Zm92.454-18.35a19.184,19.184,0,0,1-5.073,4.84,12.8,12.8,0,0,1-7.125,1.88,12.611,12.611,0,0,1-8.436-2.9,13.536,13.536,0,0,1-4.446-7.81H281.15v-5.36a37,37,0,0,0-1.824-11.97,26.84,26.84,0,0,0-5.187-9.18,22.538,22.538,0,0,0-8.208-5.87,27.33,27.33,0,0,0-10.773-2.05,34.868,34.868,0,0,0-12.027,2.05,29.065,29.065,0,0,0-9.8,5.87,27.613,27.613,0,0,0-6.555,9.18,31.122,31.122,0,0,0,0,23.94,27.613,27.613,0,0,0,6.555,9.18,29.065,29.065,0,0,0,9.8,5.87,34.868,34.868,0,0,0,12.027,2.05,31.082,31.082,0,0,0,13-2.85,27.342,27.342,0,0,0,10.374-8.09Zm-25.08-15.62a10.8,10.8,0,0,1,.969-3.93,10.2,10.2,0,0,1,2.394-3.31,12.606,12.606,0,0,1,3.7-2.34,12.983,12.983,0,0,1,5.016-.91,10.147,10.147,0,0,1,7.638,3.08,9.9,9.9,0,0,1,2.85,7.41H241.478Zm55.745,33.97h17.1v-23.14a56.891,56.891,0,0,1,.456-7.52,14.543,14.543,0,0,1,2-5.88,10.284,10.284,0,0,1,4.388-3.81,18.044,18.044,0,0,1,7.753-1.37,23.29,23.29,0,0,1,3.7.28,25.882,25.882,0,0,1,3.59.86v-15.62a14.839,14.839,0,0,0-2.735-.46c-0.989-.07-1.977-0.11-2.964-0.11a16.423,16.423,0,0,0-9.462,2.56,21.037,21.037,0,0,0-6.5,7.7h-0.228v-8.89h-17.1v55.4Zm69.2,0h18.127l21.887-55.4H389.22l-13,37.62H376l-14.021-37.62H343.506Zm52.212,0h17.1v-55.4h-17.1v55.4Zm1.539-65.83a9.918,9.918,0,1,0-2.907-7.01A9.58,9.58,0,0,0,420.171,2928.32Zm74.043,47.48a19.184,19.184,0,0,1-5.073,4.84,12.8,12.8,0,0,1-7.125,1.88,12.61,12.61,0,0,1-8.436-2.9,13.536,13.536,0,0,1-4.446-7.81h39.672v-5.36a37,37,0,0,0-1.824-11.97,26.84,26.84,0,0,0-5.187-9.18,22.538,22.538,0,0,0-8.208-5.87,27.33,27.33,0,0,0-10.773-2.05,34.864,34.864,0,0,0-12.027,2.05,29.065,29.065,0,0,0-9.8,5.87,27.6,27.6,0,0,0-6.555,9.18,31.122,31.122,0,0,0,0,23.94,27.6,27.6,0,0,0,6.555,9.18,29.065,29.065,0,0,0,9.8,5.87,34.864,34.864,0,0,0,12.027,2.05,31.082,31.082,0,0,0,13-2.85,27.342,27.342,0,0,0,10.374-8.09Zm-25.08-15.62a10.818,10.818,0,0,1,.969-3.93,10.2,10.2,0,0,1,2.394-3.31,12.606,12.606,0,0,1,3.7-2.34,12.983,12.983,0,0,1,5.016-.91,10.147,10.147,0,0,1,7.638,3.08,9.9,9.9,0,0,1,2.85,7.41H469.134Zm69.425,33.97h17.214l10.26-36.82h0.228l11.514,36.82h16.872l19.722-55.4H597.041l-10.374,34.77h-0.228l-10.261-34.77h-18.7l-9.462,34.77h-0.228l-11.286-34.77H518.266Z" transform="translate(-54.281 -2911.38)"/>
</svg>
