<svg xmlns="http://www.w3.org/2000/svg" width="55.599" height="32" viewBox="0 0 55.599 32">
  <path id="_03" data-name="03" d="M53.273,3500.479a16,16,0,1,0-16.108-16.021,16,16,0,0,0,16.108,16.021Zm0-5.109a10.892,10.892,0,1,1,10.7-10.912A10.739,10.739,0,0,1,53.273,3495.37Zm28.8,5.109a10.7,10.7,0,0,0,10.7-10.739,9.715,9.715,0,0,0-7.967-9.7l-.3-.043v-.13l7.188-10.739H73.971v5.066h8.877L76.093,3484.5h5.413c3.464,0,5.846,2.035,5.846,5.369a5.2,5.2,0,0,1-5.239,5.542c-3.248,0-5.326-2.382-5.326-5.629H71.373A10.718,10.718,0,0,0,82.068,3500.479Z" transform="translate(-37.165 -3468.479)" fill="#fff" fill-rule="evenodd"/>
</svg>
