<svg xmlns="http://www.w3.org/2000/svg" width="12.196" height="12.196" viewBox="0 0 12.196 12.196">
  <path id="_" data-name="" d="M179.353,3503.07l-3.888,0a.344.344,0,0,0-.343.343v.8h0a.343.343,0,0,0,.343.342h.007l1.754-.065.049.051-6.643,6.643a.279.279,0,0,0-.084.2.288.288,0,0,0,.084.2l.549.547a.281.281,0,0,0,.4,0l6.643-6.643.049.049-.065,1.754v.009a.343.343,0,0,0,.343.342h.793a.343.343,0,0,0,.343-.342l0-3.889a.344.344,0,0,0-.343-.344Zm-1.563,6.86h-.381a.381.381,0,0,0-.381.382v3.669a.143.143,0,0,1-.142.142h-8.1a.143.143,0,0,1-.142-.142v-8.1a.142.142,0,0,1,.142-.143h3.668a.382.382,0,0,0,.381-.382v-.38a.382.382,0,0,0-.381-.383h-3.811a1.144,1.144,0,0,0-1.143,1.144v8.385a1.144,1.144,0,0,0,1.143,1.143h8.385a1.144,1.144,0,0,0,1.143-1.143v-3.811A.381.381,0,0,0,177.791,3509.93Z" transform="translate(-167.5 -3503.069)" fill="#666" fill-rule="evenodd"/>
</svg>
