<svg xmlns="http://www.w3.org/2000/svg" viewBox="0 0 136.06 195.42"><defs><style>.cls-1{fill:#85CE70;}</style></defs><g id="レイヤー_2" data-name="レイヤー 2"><g id="レイヤー_1-2" data-name="レイヤー 1"><path class="cls-1" d="M128.77,0H7.29A7.31,7.31,0,0,0,0,7.29V26.15H136.06V7.29A7.31,7.31,0,0,0,128.77,0ZM101.84,20.75a6.68,6.68,0,1,1,6.68-6.68A6.68,6.68,0,0,1,101.84,20.75Zm16.25,0a6.68,6.68,0,1,1,6.68-6.68A6.68,6.68,0,0,1,118.09,20.75ZM100.56,102V99.86a9.23,9.23,0,0,1,9.23-9.22h1.68a44.85,44.85,0,1,0,.37,20.53h-2A9.24,9.24,0,0,1,100.56,102ZM52.5,76.33A30,30,0,0,0,38.44,98.51,3.85,3.85,0,0,1,34.61,102a3,3,0,0,1-.42,0,3.85,3.85,0,0,1-3.42-4.24A37.7,37.7,0,0,1,48.46,69.75a3.86,3.86,0,1,1,4,6.58ZM0,31.3V179.12a7.31,7.31,0,0,0,7.29,7.29H9v9H40.88v-9H95.19v9h31.86v-9h1.72a7.31,7.31,0,0,0,7.29-7.29V31.3ZM132.06,102a9.23,9.23,0,0,1-9.22,9.22h-1.49A54.16,54.16,0,1,1,121,90.64h1.8a9.22,9.22,0,0,1,9.22,9.22Zm-3.86-2.09V102a5.36,5.36,0,0,1-5.36,5.36h-13a5.37,5.37,0,0,1-5.37-5.36V99.86a5.38,5.38,0,0,1,5.37-5.37h13A5.37,5.37,0,0,1,128.2,99.86Z"/></g></g></svg>