<svg xmlns="http://www.w3.org/2000/svg" viewBox="0 0 148.53 182.65"><defs><style>.cls-1{fill:#85CE70;}</style></defs><g id="レイヤー_2" data-name="レイヤー 2"><g id="レイヤー_1-2" data-name="レイヤー 1"><path class="cls-1" d="M148.53,135.75c-3.08-26.52-24.31-48.34-52.66-55.83V76A10.92,10.92,0,0,0,85,65H63.58A10.92,10.92,0,0,0,52.66,76v4C24.32,87.41,3.08,109.23,0,135.75H48.44c3.79,8.18,13.93,14.06,25.83,14.06s22-5.88,25.82-14.06ZM43.4,98.41a53.9,53.9,0,0,0-21.77,21,3.94,3.94,0,0,1-3.45,2,3.87,3.87,0,0,1-1.91-.5,3.94,3.94,0,0,1-1.54-5.36A61.94,61.94,0,0,1,39.65,91.47a3.94,3.94,0,0,1,3.75,6.94Zm30.87,45.4c-8.19,0-15.31-3.27-18.91-8.06H93.18C89.58,140.54,82.46,143.81,74.27,143.81Zm5-82.88h-10V0h10Zm-5,121.72a4,4,0,0,1-4-4V162.2a4,4,0,0,1,8,0v16.45A4,4,0,0,1,74.27,182.65Zm-35.43-6.87a3.93,3.93,0,0,1-2.68-1,4,4,0,0,1-.28-5.65l13-14.4a4,4,0,1,1,5.93,5.37l-13,14.4A4,4,0,0,1,38.84,175.78Zm70.85,0a4,4,0,0,1-3-1.32l-13-14.4a4,4,0,0,1,5.93-5.37l13,14.4a4,4,0,0,1-3,6.69Z"/></g></g></svg>