<svg xmlns="http://www.w3.org/2000/svg" viewBox="0 0 208.22 75.9"><defs><style>.cls-1{fill:#85CE70;}</style></defs><g id="レイヤー_2" data-name="レイヤー 2"><g id="レイヤー_1-2" data-name="レイヤー 1"><path class="cls-1" d="M202.13,0H6.09A6.09,6.09,0,0,0,0,6.09v51a7.25,7.25,0,0,0,1.75,4.72l10,11.67A6.87,6.87,0,0,0,17,75.9H191.25a6.87,6.87,0,0,0,5.2-2.39l10-11.67a7.25,7.25,0,0,0,1.75-4.72v-51A6.09,6.09,0,0,0,202.13,0ZM181.74,41.35a3.57,3.57,0,1,1-3.57,3.56A3.57,3.57,0,0,1,181.74,41.35Zm2.86,27.74h-161a2,2,0,0,1,0-4h161a2,2,0,0,1,0,4Zm10.22-8.94H13.4a2,2,0,1,1,0-4H194.82a2,2,0,0,1,0,4Zm-1.07-11.67a3.57,3.57,0,1,1,3.57-3.57A3.58,3.58,0,0,1,193.75,48.48Z"/></g></g></svg>