<svg xmlns="http://www.w3.org/2000/svg" viewBox="0 0 166.16 146.6"><defs><style>.cls-1{fill:#DDFFB5;}</style></defs><g id="レイヤー_2" data-name="レイヤー 2"><g id="レイヤー_1-2" data-name="レイヤー 1"><path class="cls-1" d="M166.16,83.76a4.79,4.79,0,0,1-4.79,4.79h-4.66l-4.15,36.28a16.2,16.2,0,0,1-11.88,13.79v8h-6.23v-7.41H31.71v7.41H25.48v-8A16.18,16.18,0,0,1,13.6,124.83L9.45,88.55H4.78a4.79,4.79,0,0,1,0-9.57H161.37A4.79,4.79,0,0,1,166.16,83.76ZM120.68,0a20.86,20.86,0,0,0-19.23,12.72l-1.78,4.2A21,21,0,0,0,76.48,30l39.06,15.17a21,21,0,0,0-8.41-25.33l1.68-4a12.89,12.89,0,0,1,24.75,5V70.42h8V20.89A20.91,20.91,0,0,0,120.68,0Z"/></g></g></svg>