<svg id="icon-external-link.svg" xmlns="http://www.w3.org/2000/svg" width="60" height="60" viewBox="0 0 60 60">
  <defs>
    <style>
      .cls-1 {
        fill: #7bbdd1;
        fill-rule: evenodd;
      }
    </style>
  </defs>
  <path id="_" data-name="" class="cls-1" d="M225.812,4198.07l-19.125.02a1.691,1.691,0,0,0-1.687,1.69v3.91a1.683,1.683,0,0,0,1.687,1.68h0.034l8.629-.32,0.241,0.25-32.679,32.68a1.381,1.381,0,0,0-.414.99,1.422,1.422,0,0,0,.414,1l2.7,2.69a1.391,1.391,0,0,0,1.992,0l32.679-32.68,0.241,0.24-0.319,8.63v0.04a1.683,1.683,0,0,0,1.687,1.68h3.9a1.683,1.683,0,0,0,1.688-1.68l0.02-19.13A1.691,1.691,0,0,0,225.812,4198.07Zm-7.687,33.75H216.25a1.877,1.877,0,0,0-1.875,1.88v18.05a0.706,0.706,0,0,1-.7.7H173.828a0.706,0.706,0,0,1-.7-0.7V4211.9a0.7,0.7,0,0,1,.7-0.7h18.047a1.877,1.877,0,0,0,1.875-1.88v-1.87a1.877,1.877,0,0,0-1.875-1.88h-18.75a5.628,5.628,0,0,0-5.625,5.63v41.25a5.626,5.626,0,0,0,5.625,5.62h41.25a5.627,5.627,0,0,0,5.625-5.62V4233.7A1.877,1.877,0,0,0,218.125,4231.82Z" transform="translate(-167.5 -4198.06)"/>
</svg>
