<svg id="logo.svg" xmlns="http://www.w3.org/2000/svg" width="174.688" height="22.813" viewBox="0 0 174.688 22.813">
  <defs>
    <style>
      .cls-1 {
        fill: #666666;
        fill-rule: evenodd;
      }
    </style>
  </defs>
  <path id="電気事業連合会" class="cls-1" d="M135.471,68.16V60.5H118.923v8.7h2.722V68.16H125.6c0,2.514.8,3.273,4.19,3.273h5.019c2.6,0,3.386-.783,3.717-3.676a7.666,7.666,0,0,1-2.367-.9c-0.166,2.04-.379,2.4-1.587,2.4H130.05c-1.539,0-1.729-.166-1.729-1.091h7.15ZM125.6,63.488h-3.954V62.421H125.6v1.067Zm2.722,0V62.421h4.333v1.067h-4.333ZM121.645,65.2H125.6v1.043h-3.954V65.2Zm6.676,0h4.333v1.043h-4.333V65.2Zm-2.58-10.317v5h2.793v-5h6.558v2.965h2.628V52.981h-9.186v-0.9h7.434V49.969H118.355V52.08h7.386v0.9h-9v4.862h2.509V54.878h6.487Zm-5.564,2.372h4.688V55.685h-4.688V57.25Zm9.257,0H134.1V55.685h-4.664V57.25Zm-4.545,2.372V58.057h-5.161v1.565h5.161Zm9.753,0V58.057h-5.208v1.565h5.208Zm12.3-2.4h13.8v-2.3H147.057l0.639-1.138h15.223V51.416H148.738a11.713,11.713,0,0,0,.426-1.186,0.672,0.672,0,0,0,.663-0.308l-3.409-.9a16.379,16.379,0,0,1-5,8.254,16.648,16.648,0,0,1,2.391,1.708l0.308-.285v2.111h12.831c0.142,6.143.852,10.72,4.332,10.72,1.823,0,2.344-1.281,2.557-4.269A9.931,9.931,0,0,1,162,65.48c-0.048,1.945-.143,3.2-0.5,3.225-1.4,0-1.7-4.53-1.657-10.293H144.429a18.922,18.922,0,0,0,2.51-3.273v2.087Zm-2.77,6.356c1.278,0.712,2.675,1.565,4.024,2.467a21.425,21.425,0,0,1-5.942,3.676,16.2,16.2,0,0,1,1.942,2.111,24.546,24.546,0,0,0,6.273-4.174,28.259,28.259,0,0,1,3.575,3.107l2.273-2.158a28.534,28.534,0,0,0-3.812-3.083,19.583,19.583,0,0,0,2.249-3.154,0.62,0.62,0,0,0,.687-0.261l-3.125-1.186a16.724,16.724,0,0,1-2.107,3.107c-1.373-.878-2.77-1.66-4-2.324Zm42.481-.854V59.764h-7.173V58.816h6.794V53.835h-6.794v-0.9h9.138V50.68h-9.138V49.755a0.593,0.593,0,0,0,.639-0.5l-3.528-.142V50.68h-8.9v2.253h8.9v0.9h-6.463v4.981h6.463v0.949h-7.055v1.945h7.055v1.02h-9.446v2.158h9.446V66h-7.244v2.063h7.244v0.712a0.493,0.493,0,0,1-.592.569c-0.378,0-1.8,0-2.935-.047a8.862,8.862,0,0,1,.923,2.253c5.327,0,5.493-.617,5.493-3.487h4.285v1h2.888V64.887h2.509V62.729H186.65Zm-13.8-7.092h3.74v1.376h-3.74V55.637Zm10.511,1.376h-3.882V55.637h3.882v1.376Zm0.4,4.7v1.02h-4.285v-1.02h4.285ZM179.477,66V64.887h4.285V66h-4.285Zm34.763-2.3h-9.281V62.634h7.174V60.571h-7.174V59.5h8.286v-2.23h-4.734a17.114,17.114,0,0,0,.923-1.613,0.586,0.586,0,0,0,.615-0.237l-0.213-.071h4.333V53.029H211.02a28.776,28.776,0,0,0,1.515-2.467,0.544,0.544,0,0,0,.616-0.261l-3.2-1a19.347,19.347,0,0,1-1.587,3.415l0.829,0.308h-2.012V49.755a0.616,0.616,0,0,0,.639-0.474l-3.338-.166v3.913h-1.752v-3.3a0.573,0.573,0,0,0,.616-0.451l-3.267-.166v3.913H197.9l1.161-.427a17.028,17.028,0,0,0-1.823-3.368l-2.439.83a19.321,19.321,0,0,1,1.492,2.965h-3.2v2.324l5-.024v0.024l-0.284.047a10.927,10.927,0,0,1,.805,1.874h-4.546V59.5h8.073v1.067h-6.889v2.063h6.889V63.7h-9.114V66.05h6.841a24.671,24.671,0,0,1-7.552,2.8,13.422,13.422,0,0,1,1.823,2.372,23.233,23.233,0,0,0,8-3.866V71.5h2.817V67.212a20.376,20.376,0,0,0,8.026,4.032,12,12,0,0,1,1.918-2.585,21.712,21.712,0,0,1-7.553-2.609h6.89V63.7Zm-13.021-6.4V57.274l0.4-.071a12.789,12.789,0,0,0-.805-1.85h5.659c-0.285.664-.616,1.376-0.876,1.921Zm32.893,10.6V65.931h6.558V63.607h-6.558V62.563h5.161V54.4h-5.161V53.432h6.25v-2.3h-6.25V49.755a0.573,0.573,0,0,0,.616-0.451l-3.386-.166v1.992h-5.966v2.3h5.966V54.4h-4.924v8.159h4.924v1.044h-6.25v2.324h6.25V67.9h2.77Zm-2.77-11.479v1.115h-2.3V56.42h2.3Zm5.185,1.115h-2.415V56.42h2.415v1.115Zm-7.481,1.874h2.3v1.162h-2.3V59.409Zm5.066,1.162V59.409h2.415v1.162h-2.415ZM219.1,51.345a19.412,19.412,0,0,1,3.6,3.961l2.344-1.779a20.311,20.311,0,0,0-3.764-3.795Zm-0.095,7.068v2.633h2.675v5.242a36.12,36.12,0,0,1-2.959,2.182l1.4,2.988a0.428,0.428,0,0,0,.307-0.5c0.853-.712,1.847-1.613,2.794-2.538,2.154,2.728,4.877,2.728,10.346,2.728,2.391,0,4.995-.047,6.794-0.142a12.666,12.666,0,0,1,.9-2.775c-2.273.19-5.658,0.261-8.476,0.261-4.356,0-6.96,0-8.38-2.419V58.412h-5.4Zm30.052,0.925h11.932V57.653a33.726,33.726,0,0,0,3.645,2.253,13.32,13.32,0,0,1,1.847-2.561,25.613,25.613,0,0,1-9.943-7.542,0.679,0.679,0,0,0,.639-0.474l-3.811-.213a25.491,25.491,0,0,1-9.778,8.586,12.181,12.181,0,0,1,1.752,2.277,33.85,33.85,0,0,0,3.717-2.348v1.708Zm1.065-2.514a23.57,23.57,0,0,0,4.782-4.862,26.143,26.143,0,0,0,4.948,4.862h-9.73Zm0.166,14.7V70.651h9.446v0.878h2.912V61.709H247.5v9.819h2.794Zm9.446-3.392h-9.446v-3.89h9.446v3.89Zm25.79-9.2V57.013a29.468,29.468,0,0,0,4.049,2.324,12.669,12.669,0,0,1,1.846-2.609,22.58,22.58,0,0,1-9.777-6.949,0.7,0.7,0,0,0,.615-0.474l-3.835-.19a23.665,23.665,0,0,1-9.754,8.111,10.743,10.743,0,0,1,1.657,2.324,28.91,28.91,0,0,0,4.072-2.372v1.755h11.127Zm-9.99-2.609a21.556,21.556,0,0,0,4.4-4.435,22.42,22.42,0,0,0,4.617,4.435h-9.02Zm0.142,7.234a39.922,39.922,0,0,1-1.894,4.364c-1.326.047-2.51,0.047-3.5,0.071l0.994,3.131a0.5,0.5,0,0,0,.45-0.38c3.622-.166,9.115-0.451,14.465-0.783a16.987,16.987,0,0,1,1.018,1.565l2.652-1.613a30.946,30.946,0,0,0-5.469-6.143l-2.51,1.3a32.388,32.388,0,0,1,2.486,2.585c-2.557.071-5.113,0.142-7.457,0.19a40.151,40.151,0,0,0,1.894-3.771,0.724,0.724,0,0,0,.71-0.285l-0.71-.237h11.127V60.9H270.163v2.656h5.516Z" transform="translate(-116.75 -49.031)"/>
</svg>
