<svg id="no-txt04.svg" xmlns="http://www.w3.org/2000/svg" width="222.531" height="125.65" viewBox="0 0 222.531 125.65">
  <defs>
    <style>
      .cls-1 {
        fill: #7bbdd1;
        fill-rule: evenodd;
      }
    </style>
  </defs>
  <path id="_04" data-name="04" class="cls-1" d="M97.769,3786.11a62.816,62.816,0,1,0,0-125.63c-34.85,0-63.239,27.88-63.239,62.73A63.048,63.048,0,0,0,97.769,3786.11Zm0-20.06c-22.95,0-41.99-18.53-41.99-42.84s19.04-42.67,41.99-42.67c23.29,0,41.99,18.36,41.99,42.67S121.059,3766.05,97.769,3766.05Zm127.669,17.51h21.25v-23.12h10.37V3741.4h-10.37v-78.37h-26.35l-52.019,81.77v15.64h57.119v23.12Zm-32.3-42.16,31.789-49.3h1.02v49.3H193.139Z" transform="translate(-34.531 -3660.47)"/>
</svg>
