<?xml version="1.0" encoding="utf-8"?>
<!-- Generator: Adobe Illustrator 21.1.0, SVG Export Plug-In . SVG Version: 6.00 Build 0)  -->
<svg version="1.1" id="レイヤー_3" xmlns="http://www.w3.org/2000/svg" xmlns:xlink="http://www.w3.org/1999/xlink" x="0px"
	 y="0px" viewBox="0 0 210.1 38.5" style="enable-background:new 0 0 210.1 38.5;" xml:space="preserve">
<style type="text/css">
	.st0{fill:#4694D1;}
	.st1{fill:#24328C;}
	.st2{fill:#1F245A;}
</style>
<g>
	<g>
		<g>
			<path class="st0" d="M7.5,8.5c0,0-0.8-0.8-1.9-0.8H0L13.8,0l13.8,7.7l-1.3,16.4h-3c-1.1,0-1.9-0.8-1.9-0.8L7.5,8.5z"/>
		</g>
		<path class="st1" d="M26.4,25.4h-5.6c-1.1,0-1.9-0.8-1.9-0.8L4.9,9.8C4.9,9.8,4.1,9,3,9H0l1.3,16.4l12.6,13.1L26.4,25.4L26.4,25.4
			L26.4,25.4L26.4,25.4z"/>
	</g>
	<g>
		<path class="st2" d="M60.1,32l-2.8-6.3h-9.8L44.7,32h-4.2L52.4,6.4L64.3,32H60.1z M49,22.4h6.9l-2.5-5.6c-0.1-0.4-0.3-0.8-0.5-1.2
			c-0.2-0.5-0.3-1-0.5-1.6c-0.1,0.5-0.3,1-0.4,1.5c-0.2,0.5-0.3,0.9-0.5,1.3L49,22.4z"/>
		<path class="st2" d="M91.2,6.4h4v15.9c0,2.2,0.5,3.9,1.5,5c1,1.1,2.6,1.7,4.6,1.7c2,0,3.6-0.6,4.6-1.7c1-1.1,1.5-2.8,1.5-5V6.4h4
			v16.3c0,3.3-0.8,5.8-2.5,7.5c-1.7,1.7-4.2,2.5-7.6,2.5c-3.4,0-5.9-0.8-7.6-2.5c-1.7-1.6-2.5-4.1-2.5-7.5V6.4z"/>
		<path class="st2" d="M131.1,32l-2.8-6.3h-9.8l-2.9,6.3h-4.2l11.9-25.6L135.3,32H131.1z M120,22.4h6.9l-2.5-5.6
			c-0.1-0.4-0.3-0.8-0.5-1.2c-0.2-0.5-0.3-1-0.5-1.6c-0.1,0.5-0.3,1-0.4,1.5c-0.2,0.5-0.3,0.9-0.5,1.3L120,22.4z"/>
		<path class="st2" d="M155.9,32V6.4h4V32H155.9z"/>
		<path class="st2" d="M163,32V6.4l13.9,14.5c0.4,0.4,0.9,0.9,1.3,1.4c0.4,0.5,0.9,1,1.4,1.6v-17h3.7V33l-14.2-14.7
			c-0.4-0.4-0.8-0.9-1.2-1.3c-0.4-0.5-0.8-0.9-1.1-1.4V32H163z"/>
		<path class="st2" d="M200.2,19h9.8c0,0.2,0,0.4,0,0.7c0,0.8,0.1,1.3,0.1,1.6c0,3.5-1,6.2-3,8.1c-2,1.9-4.8,2.9-8.4,2.9
			c-2,0-3.8-0.3-5.4-0.9c-1.6-0.6-3-1.5-4.2-2.7c-1.2-1.2-2.1-2.6-2.7-4.2c-0.6-1.6-0.9-3.3-0.9-5.2c0-1.9,0.3-3.6,0.9-5.1
			c0.6-1.6,1.6-3,2.8-4.2c1.2-1.2,2.6-2.1,4.2-2.7c1.6-0.6,3.3-0.9,5.2-0.9c1.9,0,3.7,0.4,5.2,1.1c1.5,0.7,2.9,1.8,4.1,3.2l-2.9,2.2
			c-0.8-1-1.8-1.7-2.8-2.2c-1-0.5-2.2-0.7-3.5-0.7c-2.7,0-4.8,0.9-6.5,2.6c-1.7,1.7-2.5,3.9-2.5,6.7c0,2.8,0.8,5,2.5,6.8
			c1.7,1.7,3.9,2.6,6.6,2.6c2.3,0,4.1-0.5,5.4-1.6c1.3-1.1,2-2.5,2-4.4v-0.4h-5.9V19z"/>
		<path class="st2" d="M140.6,20.6V32h-3.8V6.4h5.6c1.6,0,3.4,0.1,4.3,0.3c0.9,0.2,1.7,0.6,2.3,1.1c0.8,0.6,1.4,1.4,1.8,2.4
			c0.4,1,0.6,2.1,0.6,3.2c0,2.1-0.5,3.7-1.4,4.8c-1,1.2-2.8,1.9-4.7,2.1l8.5,11.7h-4.5l-8.2-11.5H140.6z M146.3,11
			c-1.1-1.1-4.3-1-4.3-1h-1.2v7.3h1.2c2.1,0,3.5-0.3,4.2-0.8c0.7-0.5,1-1.4,1-2.7C147.3,13.7,147.4,12,146.3,11z"/>
		<path class="st2" d="M87.8,14.4c-0.7-1.6-1.6-3-2.9-4.2C83.7,9,82.3,8,80.7,7.4c-1.6-0.6-3.3-1-5.1-1c0,0-3.5,0.3-5.1,1
			c-1.6,0.6-3,1.6-4.3,2.8c-1.2,1.2-2.2,2.6-2.9,4.2c-0.7,1.6-1,3.2-1,5c0,1.8,0.3,3.4,1,5c0.7,1.6,1.6,2.9,2.9,4.2
			c1.2,1.2,2.6,2.1,4.2,2.8c1.6,0.7,3.2,1,4.9,1c0.2,0,0.3,0,0.4,0c1.7,0,3.3-0.3,4.9-1c1.6-0.7,3-1.6,4.2-2.8
			c1.2-1.2,2.2-2.6,2.9-4.2c0.7-1.6,1-3.2,1-5C88.8,17.6,88.5,15.9,87.8,14.4z M82,25.8c-1.7,1.8-3.7,2.7-6.3,2.7
			c-2.6,0-4.7-0.9-6.5-2.7c-1.7-1.8-2.6-3.9-2.6-6.5c0-1.3,0.2-2.4,0.7-3.6c0.4-1.1,1.1-2.1,2-3c0.9-0.9,1.8-1.5,2.9-2
			c1.1-0.5,2.2-0.7,3.5-0.7c1.2,0,2.3,0.2,3.4,0.7c1.1,0.5,2.1,1.1,2.9,2c0.9,0.9,1.5,1.9,1.9,3c0.4,1.1,0.7,2.3,0.7,3.6
			C84.6,21.9,83.7,24.1,82,25.8z"/>
		<path class="st2" d="M87.8,14.4c-0.7-1.6-1.6-3-2.9-4.2C83.7,9,82.3,8,80.7,7.4c-1.6-0.6-3.3-1-5.1-1c0,0-3.5,0.3-5.1,1
			c-1.6,0.6-3,1.6-4.3,2.8c-1.2,1.2-2.2,2.6-2.9,4.2c-0.7,1.6-1,3.2-1,5c0,1.8,0.3,3.4,1,5c0.7,1.6,1.6,2.9,2.9,4.2
			c1.2,1.2,2.6,2.1,4.2,2.8c1.6,0.7,3.2,1,4.9,1c0.2,0,0.3,0,0.4,0c1.7,0,3.3-0.3,4.9-1c1.6-0.7,3-1.6,4.2-2.8
			c1.2-1.2,2.2-2.6,2.9-4.2c0.7-1.6,1-3.2,1-5C88.8,17.6,88.5,15.9,87.8,14.4z M82,25.8c-1.7,1.8-3.7,2.7-6.3,2.7
			c-2.6,0-4.7-0.9-6.5-2.7c-1.7-1.8-2.6-3.9-2.6-6.5c0-1.3,0.2-2.4,0.7-3.6c0.4-1.1,1.1-2.1,2-3c0.9-0.9,1.8-1.5,2.9-2
			c1.1-0.5,2.2-0.7,3.5-0.7c1.2,0,2.3,0.2,3.4,0.7c1.1,0.5,2.1,1.1,2.9,2c0.9,0.9,1.5,1.9,1.9,3c0.4,1.1,0.7,2.3,0.7,3.6
			C84.6,21.9,83.7,24.1,82,25.8z"/>
		<polygon class="st2" points="88.8,33.9 80.1,22.8 75.2,22.8 83.9,33.9 		"/>
	</g>
</g>
</svg>
